<?xml version="1.0" encoding="utf-8"?>
<svg xmlns="http://www.w3.org/2000/svg" style="margin: auto; background: none; display: block; shape-rendering: auto;" width="289" height="232" preserveAspectRatio="xMidYMid">
<style type="text/css">
  text {
    text-anchor: middle; font-size: 67px; opacity: 0;
  }
</style>
<g style="transform-origin: 144.5px 116px; transform: scale(0.8375);">
<g transform="translate(144.5,116)">
  <g transform="translate(0,0)"><g class="path" style="transform: matrix(1, 0, 0, 1, 0, 0); transform-origin: -132.77px -6.85221px; animation: 1.23457s linear -0.740741s infinite normal forwards running bounce-01afc65a-391a-40be-bef0-60a7bb96e097;"><path d="M18.52-1.95L18.52-1.95L14.30-1.95L14.30-50.78L2.58-50.78L2.58-48.83L8.44-48.83L8.44-6.64L8.44-6.64Q8.44-3.05 6.41-2.34L6.41-2.34L6.41-2.34Q5.23-1.95 2.58-1.95L2.58-1.95L2.58 0L20.47 0L20.47 0Q20.47-1.72 19.30-1.88L19.30-1.88L19.30-1.88Q18.98-1.95 18.52-1.95" fill="#53abff" stroke="none" stroke-width="none" transform="translate(-144.29503798484802,18.53778497695923)" style="fill: rgb(83, 171, 255);"></path></g><g class="path" style="transform: matrix(1, 0, 0, 1, 0, 0); transform-origin: -101.68px 1.93778px; animation: 1.23457s linear -0.666667s infinite normal forwards running bounce-01afc65a-391a-40be-bef0-60a7bb96e097;"><path d="M32.34-16.64L32.34-16.64L32.34-16.64Q32.34-28.75 38.98-31.41L38.98-31.41L38.98-31.41Q40.70-32.03 42.58-32.03L42.58-32.03L42.58-32.03Q51.25-32.03 52.66-21.09L52.66-21.09L52.66-21.09Q52.89-19.22 52.89-16.95L52.89-16.95L52.89-16.95Q52.89-3.83 45.70-1.56L45.70-1.56L45.70-1.56Q44.30-1.17 42.81-1.17L42.81-1.17L42.81-1.17Q34.92-1.17 32.89-10.55L32.89-10.55L32.89-10.55Q32.34-13.28 32.34-16.64zM42.81-33.98L42.81-33.98L42.81-33.98Q35.31-33.98 30.31-28.83L30.31-28.83L30.31-28.83Q25.70-24.06 25.70-16.95L25.70-16.95L25.70-16.95Q25.70-7.11 32.89-2.19L32.89-2.19L32.89-2.19Q37.27 0.78 42.58 0.78L42.58 0.78L42.58 0.78Q50.08 0.78 55-4.53L55-4.53L55-4.53Q59.53-9.38 59.53-16.64L59.53-16.64L59.53-16.64Q59.53-26.48 52.27-31.25L52.27-31.25L52.27-31.25Q47.97-33.98 42.81-33.98" fill="#53abff" stroke="none" stroke-width="none" transform="translate(-144.29503798484802,18.53778497695923)" style="fill: rgb(155, 155, 155);"></path></g><g class="path" style="transform: matrix(1, 0, 0, 1, 0, 0); transform-origin: -61.64px 1.93778px; animation: 1.23457s linear -0.592593s infinite normal forwards running bounce-01afc65a-391a-40be-bef0-60a7bb96e097;"><path d="M93.20 0.78L93.20 0.78L93.20 0.78Q99.22 0.78 99.84-6.48L99.84-6.48L99.84-6.48Q99.92-6.95 99.92-7.34L99.92-7.34L97.89-7.42L97.89-7.42Q97.34-1.72 94.84-1.64L94.84-1.64L94.84-1.64Q92.81-1.80 92.73-5.70L92.73-5.70L92.73-22.19L92.73-22.19Q92.73-33.36 81.56-33.98L81.56-33.98L81.56-33.98Q80.86-33.98 80.16-33.98L80.16-33.98L80.16-33.98Q71.41-33.98 68.44-29.92L68.44-29.92L68.44-29.92Q67.50-28.59 67.50-27.27L67.50-27.27L67.50-27.27Q67.50-24.84 69.77-24.45L69.77-24.45L69.77-24.45Q70.16-24.38 70.55-24.38L70.55-24.38L70.55-24.38Q72.34-24.38 73.20-26.64L73.20-26.64L73.20-26.64Q74.30-29.53 74.69-30.08L74.69-30.08L74.69-30.08Q76.17-32.03 79.30-32.03L79.30-32.03L79.30-32.03Q86.64-31.56 86.88-23.98L86.88-23.98L86.88-19.06L86.88-19.06Q68.52-19.06 65.86-11.41L65.86-11.41L65.86-11.41Q65.39-9.92 65.39-8.20L65.39-8.20L65.39-8.20Q65.39-2.27 70.63-0.08L70.63-0.08L70.63-0.08Q72.73 0.78 75.08 0.78L75.08 0.78L75.08 0.78Q80.78 0.78 84.69-3.13L84.69-3.13L84.69-3.13Q86.09-4.61 86.80-6.25L86.80-6.25L86.80-6.25Q87.73 0.70 93.20 0.78zM77.66-2.34L77.66-2.34L77.66-2.34Q72.89-2.34 71.80-7.11L71.80-7.11L71.80-7.11Q71.56-8.20 71.56-9.53L71.56-9.53L71.56-9.53Q71.56-14.77 77.58-16.17L77.58-16.17L77.58-16.17Q80.78-16.88 86.88-16.95L86.88-16.95L86.88-10.70L86.88-10.70Q85.70-5.31 81.17-3.13L81.17-3.13L81.17-3.13Q79.38-2.34 77.66-2.34" fill="#53abff" stroke="none" stroke-width="none" transform="translate(-144.29503798484802,18.53778497695923)" style="fill: rgb(255, 111, 111);"></path></g><g class="path" style="transform: matrix(1, 0, 0, 1, 0, 0); transform-origin: -21.95px -6.46222px; animation: 1.23457s linear -0.518519s infinite normal forwards running bounce-01afc65a-391a-40be-bef0-60a7bb96e097;"><path d="M129.45-8.28L130.08 0L141.25 0L141.25 0Q141.25-1.72 140.08-1.88L140.08-1.88L140.08-1.88Q139.77-1.95 139.30-1.95L139.30-1.95L135.39-1.95L135.23-50.78L121.95-50.78L121.95-48.83L129.38-48.83L129.38-29.77L129.38-29.77Q125.55-33.98 119.06-33.98L119.06-33.98L119.06-33.98Q110.47-33.98 106.09-26.33L106.09-26.33L106.09-26.33Q103.44-21.64 103.44-15.78L103.44-15.78L103.44-15.78Q103.44-6.09 109.53-1.64L109.53-1.64L109.53-1.64Q112.97 0.78 117.11 0.78L117.11 0.78L117.11 0.78Q125.63 0.63 129.45-8.28L129.45-8.28zM110.08-16.72L110.08-16.72L110.08-16.72Q110.08-27.73 116.02-31.02L116.02-31.02L116.02-31.02Q117.89-32.03 120.16-32.03L120.16-32.03L120.16-32.03Q125.86-32.03 128.28-25.94L128.28-25.94L128.28-25.94Q129.61-22.66 129.61-18.20L129.61-18.20L129.61-18.20Q129.61-8.83 124.92-4.61L124.92-4.61L124.92-4.61Q122.42-2.34 119.22-2.34L119.22-2.34L119.22-2.34Q112.81-2.34 110.86-10.16L110.86-10.16L110.86-10.16Q110.08-13.05 110.08-16.72" fill="#53abff" stroke="none" stroke-width="none" transform="translate(-144.29503798484802,18.53778497695923)" style="fill: rgb(223, 125, 4);"></path></g><g class="path" style="transform: matrix(1, 0, 0, 1, 0, 0); transform-origin: 10.16px 1.93778px; animation: 1.23457s linear -0.444444s infinite normal forwards running bounce-01afc65a-391a-40be-bef0-60a7bb96e097;"><path d="M161.48-1.95L161.48-1.95L157.58-1.95L157.58-33.20L145.47-33.20L145.47-31.25L151.72-31.25L151.72-6.64L151.72-6.64Q151.72-3.05 149.30-2.27L149.30-2.27L149.30-2.27Q148.13-1.95 145.47-1.95L145.47-1.95L145.47 0L163.44 0L163.44 0Q163.44-1.72 162.27-1.88L162.27-1.88L162.27-1.88Q161.88-1.95 161.48-1.95" fill="#53abff" stroke="none" stroke-width="none" transform="translate(-144.29503798484802,18.53778497695923)" style="fill: rgb(50, 73, 92);"></path></g><g class="path" style="transform: matrix(1, 0, 0, 1, 0, 0); transform-origin: 9.96496px -26.0722px; animation: 1.23457s linear -0.37037s infinite normal forwards running bounce-01afc65a-391a-40be-bef0-60a7bb96e097;"><path d="M158.52-44.61L158.52-44.61L158.52-44.61Q158.52-47.34 156.09-48.52L156.09-48.52L156.09-48.52Q155.16-48.91 154.30-48.91L154.30-48.91L154.30-48.91Q151.56-48.91 150.39-46.41L150.39-46.41L150.39-46.41Q150-45.55 150-44.61L150-44.61L150-44.61Q150-41.72 152.58-40.63L152.58-40.63L152.58-40.63Q153.44-40.31 154.30-40.31L154.30-40.31L154.30-40.31Q157.03-40.31 158.13-42.81L158.13-42.81L158.13-42.81Q158.52-43.67 158.52-44.61" fill="#53abff" stroke="none" stroke-width="none" transform="translate(-144.29503798484802,18.53778497695923)" style="fill: rgb(147, 42, 255);"></path></g><g class="path" style="transform: matrix(1, 0, 0, 1, 0, 0); transform-origin: 43.87px 1.54778px; animation: 1.23457s linear -0.296296s infinite normal forwards running bounce-01afc65a-391a-40be-bef0-60a7bb96e097;"><path d="M183.36-1.95L183.36-1.95L179.84-1.95L179.84-18.83L179.84-18.83Q180.08-26.09 185-29.30L185-29.30L185-29.30Q187.11-30.63 189.30-30.63L189.30-30.63L189.30-30.63Q194.06-30.63 195.78-26.17L195.78-26.17L195.78-26.17Q196.48-24.38 196.48-22.11L196.48-22.11L196.48-6.64L196.48-6.64Q196.48-3.05 194.45-2.34L194.45-2.34L194.45-2.34Q193.28-1.95 190.63-1.95L190.63-1.95L190.63 0L208.20 0L208.20 0Q208.20-1.72 207.03-1.88L207.03-1.88L207.03-1.88Q206.72-1.95 206.25-1.95L206.25-1.95L202.34-1.95L202.34-21.33L202.34-21.33Q202.34-29.14 196.95-32.50L196.95-32.50L196.95-32.50Q194.45-33.98 191.56-33.98L191.56-33.98L191.56-33.98Q185.78-33.98 182.03-29.38L182.03-29.38L182.03-29.38Q180.63-27.58 179.77-25.39L179.77-25.39L179.45-33.20L168.13-33.20L168.13-31.25L173.98-31.25L173.98-6.64L173.98-6.64Q173.98-3.05 171.95-2.34L171.95-2.34L171.95-2.34Q170.78-1.95 168.13-1.95L168.13-1.95L168.13 0L185.31 0L185.31 0Q185.31-1.72 184.14-1.88L184.14-1.88L184.14-1.88Q183.83-1.95 183.36-1.95" fill="#53abff" stroke="none" stroke-width="none" transform="translate(-144.29503798484802,18.53778497695923)" style="fill: rgb(83, 171, 255);"></path></g><g class="path" style="transform: matrix(1, 0, 0, 1, 0, 0); transform-origin: 86.25px 6.85778px; animation: 1.23457s linear -0.222222s infinite normal forwards running bounce-01afc65a-391a-40be-bef0-60a7bb96e097;"><path d="M220.31-21.64L220.31-21.64L220.31-21.64Q220.47-31.95 228.13-32.03L228.13-32.03L228.13-32.03Q235.78-31.88 235.86-21.64L235.86-21.64L235.86-21.64Q235.70-11.02 228.13-10.94L228.13-10.94L228.13-10.94Q220.39-11.09 220.31-21.64zM228.20-33.98L228.20-33.98L228.20-33.98Q221.17-33.98 217.03-29.45L217.03-29.45L217.03-29.45Q214.06-26.09 214.06-21.56L214.06-21.56L214.06-21.56Q214.06-15.63 219.84-11.72L219.84-11.72L219.84-11.72Q220.39-11.33 220.94-11.02L220.94-11.02L220.94-11.02Q215.94-11.02 214.69-6.72L214.69-6.72L214.69-6.72Q214.45-5.70 214.45-4.69L214.45-4.69L214.45-4.69Q214.53-0.55 217.81 1.48L217.81 1.48L217.81 1.48Q215.23 4.22 215.23 7.03L215.23 7.03L215.23 7.03Q215.23 11.33 220.31 13.44L220.31 13.44L220.31 13.44Q223.52 14.84 228.20 14.84L228.20 14.84L228.20 14.84Q240.08 14.84 243.91 9.06L243.91 9.06L243.91 9.06Q245.16 7.11 245.16 4.92L245.16 4.92L245.16 4.92Q245.16-1.80 237.42-2.81L237.42-2.81L237.42-2.81Q236.41-2.97 235.31-2.97L235.31-2.97L221.09-3.28L221.09-3.28Q217.50-3.52 217.42-6.41L217.42-6.41L217.42-6.41Q217.42-8.44 220-8.98L220-8.98L220-8.98Q220.55-9.06 221.17-9.06L221.17-9.06L228.05-8.98L228.05-8.98Q235-8.98 239.14-13.67L239.14-13.67L239.14-13.67Q242.11-17.03 242.11-21.64L242.11-21.64L242.11-21.64Q242.03-27.50 237.58-31.02L237.58-31.02L237.58-31.02Q238.28-33.52 240.23-33.98L240.23-33.98L240.23-33.98Q240.55-34.06 240.86-34.06L240.86-34.06L240.86-34.06Q241.95-34.06 243.20-32.89L243.20-32.89L243.20-32.89Q244.06-32.11 244.77-32.11L244.77-32.11L244.77-32.11Q246.72-32.58 247.03-34.61L247.03-34.61L247.03-34.61Q247.03-37.03 244.77-37.89L244.77-37.89L244.77-37.89Q243.91-38.20 243.05-38.20L243.05-38.20L243.05-38.20Q239.38-38.20 237.11-34.92L237.11-34.92L237.11-34.92Q236.25-33.67 235.78-32.19L235.78-32.19L235.78-32.19Q232.27-33.98 228.20-33.98zM228.20 12.81L228.20 12.81L228.20 12.81Q220.47 12.81 218.44 8.75L218.44 8.75L218.44 8.75Q217.89 7.66 217.89 6.56L217.89 6.56L217.89 6.56Q217.97 4.45 219.77 2.34L219.77 2.34L219.77 2.34Q221.33 2.66 222.34 2.66L222.34 2.66L234.38 2.81L234.38 2.81Q240.23 2.89 241.17 5.47L241.17 5.47L241.17 5.47Q241.41 6.09 241.41 7.03L241.41 7.03L241.41 7.03Q241.41 10.47 235 12.03L235 12.03L235 12.03Q231.88 12.81 228.20 12.81" fill="#53abff" stroke="none" stroke-width="none" transform="translate(-144.29503798484802,18.53778497695923)" style="fill: rgb(155, 155, 155);"></path></g><g class="path" style="transform: matrix(1, 0, 0, 1, 0, 0); transform-origin: 111.33px 14.9028px; animation: 1.23457s linear -0.148148s infinite normal forwards running bounce-01afc65a-391a-40be-bef0-60a7bb96e097;"><path d="M259.61-3.59L259.61-3.59L259.61-3.59Q259.61-6.17 257.27-7.27L257.27-7.27L257.27-7.27Q256.48-7.66 255.63-7.66L255.63-7.66L255.63-7.66Q253.05-7.66 252.03-5.31L252.03-5.31L252.03-5.31Q251.64-4.45 251.64-3.59L251.64-3.59L251.64-3.59Q251.64-1.09 253.91 0L253.91 0L253.91 0Q254.77 0.39 255.63 0.39L255.63 0.39L255.63 0.39Q258.13 0.39 259.22-1.88L259.22-1.88L259.22-1.88Q259.61-2.73 259.61-3.59" fill="#53abff" stroke="none" stroke-width="none" transform="translate(-144.29503798484802,18.53778497695923)" style="fill: rgb(255, 111, 111);"></path></g><g class="path" style="transform: matrix(1, 0, 0, 1, 0, 0); transform-origin: 127.11px 14.9028px; animation: 1.23457s linear -0.0740741s infinite normal forwards running bounce-01afc65a-391a-40be-bef0-60a7bb96e097;"><path d="M275.39-3.59L275.39-3.59L275.39-3.59Q275.39-6.17 273.05-7.27L273.05-7.27L273.05-7.27Q272.27-7.66 271.41-7.66L271.41-7.66L271.41-7.66Q268.83-7.66 267.81-5.31L267.81-5.31L267.81-5.31Q267.42-4.45 267.42-3.59L267.42-3.59L267.42-3.59Q267.42-1.09 269.69 0L269.69 0L269.69 0Q270.55 0.39 271.41 0.39L271.41 0.39L271.41 0.39Q273.91 0.39 275-1.88L275-1.88L275-1.88Q275.39-2.73 275.39-3.59" fill="#53abff" stroke="none" stroke-width="none" transform="translate(-144.29503798484802,18.53778497695923)" style="fill: rgb(223, 125, 4);"></path></g><g class="path" style="transform: matrix(1, 0, 0, 1, 0, 0); transform-origin: 142.89px 14.9028px; animation: 1.23457s linear 0s infinite normal forwards running bounce-01afc65a-391a-40be-bef0-60a7bb96e097;"><path d="M291.17-3.59L291.17-3.59L291.17-3.59Q291.17-6.17 288.83-7.27L288.83-7.27L288.83-7.27Q288.05-7.66 287.19-7.66L287.19-7.66L287.19-7.66Q284.61-7.66 283.59-5.31L283.59-5.31L283.59-5.31Q283.20-4.45 283.20-3.59L283.20-3.59L283.20-3.59Q283.20-1.09 285.47 0L285.47 0L285.47 0Q286.33 0.39 287.19 0.39L287.19 0.39L287.19 0.39Q289.69 0.39 290.78-1.88L290.78-1.88L290.78-1.88Q291.17-2.73 291.17-3.59" fill="#53abff" stroke="none" stroke-width="none" transform="translate(-144.29503798484802,18.53778497695923)" style="fill: rgb(50, 73, 92);"></path></g></g>
</g>
</g>
<style id="bounce-01afc65a-391a-40be-bef0-60a7bb96e097" data-anikit="">@keyframes bounce-01afc65a-391a-40be-bef0-60a7bb96e097
{
  0% {
    animation-timing-function: cubic-bezier(0.1361,0.2514,0.2175,0.8786);
    transform: translate(0,0px) scaleY(1);
  }
  37% {
    animation-timing-function: cubic-bezier(0.7674,0.1844,0.8382,0.7157);
    transform: translate(0,-39.96px) scaleY(1);
  }
  72% {
    animation-timing-function: cubic-bezier(0.1118,0.2149,0.2172,0.941);
    transform: translate(0,0px) scaleY(1);
  }
  87% {
    animation-timing-function: cubic-bezier(0.7494,0.2259,0.8209,0.6963);
    transform: translate(0,19.900000000000002px) scaleY(0.602);
  }
  100% {
    transform: translate(0,0px) scaleY(1);
  }
}</style></svg>